<mxfile host="app.diagrams.net" modified="2023-09-26T01:05:06.287Z" agent="Mozilla/5.0 (Windows NT 10.0; Win64; x64) AppleWebKit/537.36 (KHTML, like Gecko) Chrome/116.0.0.0 Safari/537.36" etag="cdZeuUQaOrph4lecb2mH" version="21.7.5" type="github">
  <diagram name="Page-1" id="AG9-iz1Y3KTbG9uH-N3k">
    <mxGraphModel dx="1434" dy="1609" grid="1" gridSize="10" guides="1" tooltips="1" connect="1" arrows="1" fold="1" page="1" pageScale="1" pageWidth="1169" pageHeight="827" math="0" shadow="0">
      <root>
        <mxCell id="0" />
        <mxCell id="1" parent="0" />
        <mxCell id="xQQp603TCt627xMXDRjn-1" value="EcoPoints Activity Diagram" style="swimlane;childLayout=stackLayout;resizeParent=1;resizeParentMax=0;startSize=20;html=1;" vertex="1" parent="1">
          <mxGeometry x="70" y="-140" width="880" height="890" as="geometry" />
        </mxCell>
        <mxCell id="xQQp603TCt627xMXDRjn-2" value="User" style="swimlane;startSize=20;html=1;" vertex="1" parent="xQQp603TCt627xMXDRjn-1">
          <mxGeometry y="20" width="270" height="870" as="geometry" />
        </mxCell>
        <mxCell id="xQQp603TCt627xMXDRjn-5" value="" style="ellipse;html=1;shape=startState;fillColor=#000000;strokeColor=#ff0000;" vertex="1" parent="xQQp603TCt627xMXDRjn-2">
          <mxGeometry x="110" y="30" width="30" height="30" as="geometry" />
        </mxCell>
        <mxCell id="xQQp603TCt627xMXDRjn-6" value="" style="edgeStyle=orthogonalEdgeStyle;html=1;verticalAlign=bottom;endArrow=open;endSize=8;strokeColor=#ff0000;rounded=0;" edge="1" source="xQQp603TCt627xMXDRjn-7" parent="xQQp603TCt627xMXDRjn-2">
          <mxGeometry relative="1" as="geometry">
            <mxPoint x="125" y="120" as="targetPoint" />
          </mxGeometry>
        </mxCell>
        <mxCell id="xQQp603TCt627xMXDRjn-52" style="edgeStyle=orthogonalEdgeStyle;rounded=0;orthogonalLoop=1;jettySize=auto;html=1;exitX=0.5;exitY=1;exitDx=0;exitDy=0;entryX=0.5;entryY=0;entryDx=0;entryDy=0;" edge="1" parent="xQQp603TCt627xMXDRjn-2" source="xQQp603TCt627xMXDRjn-7" target="xQQp603TCt627xMXDRjn-42">
          <mxGeometry relative="1" as="geometry" />
        </mxCell>
        <mxCell id="xQQp603TCt627xMXDRjn-7" value="View Eco Friendly Actions" style="rounded=1;whiteSpace=wrap;html=1;" vertex="1" parent="xQQp603TCt627xMXDRjn-2">
          <mxGeometry x="65" y="120" width="120" height="30" as="geometry" />
        </mxCell>
        <mxCell id="xQQp603TCt627xMXDRjn-8" value="" style="edgeStyle=orthogonalEdgeStyle;html=1;verticalAlign=bottom;endArrow=open;endSize=8;strokeColor=#ff0000;rounded=0;" edge="1" parent="xQQp603TCt627xMXDRjn-2" source="xQQp603TCt627xMXDRjn-5" target="xQQp603TCt627xMXDRjn-7">
          <mxGeometry relative="1" as="geometry">
            <mxPoint x="195" y="160" as="targetPoint" />
            <mxPoint x="195" y="100" as="sourcePoint" />
          </mxGeometry>
        </mxCell>
        <mxCell id="xQQp603TCt627xMXDRjn-42" value="Select Eco Friendly Actions" style="rounded=1;whiteSpace=wrap;html=1;" vertex="1" parent="xQQp603TCt627xMXDRjn-2">
          <mxGeometry x="65" y="190" width="120" height="30" as="geometry" />
        </mxCell>
        <mxCell id="xQQp603TCt627xMXDRjn-58" style="edgeStyle=orthogonalEdgeStyle;rounded=0;orthogonalLoop=1;jettySize=auto;html=1;exitX=0.5;exitY=1;exitDx=0;exitDy=0;entryX=0.5;entryY=0;entryDx=0;entryDy=0;" edge="1" parent="xQQp603TCt627xMXDRjn-2" source="xQQp603TCt627xMXDRjn-43" target="xQQp603TCt627xMXDRjn-49">
          <mxGeometry relative="1" as="geometry" />
        </mxCell>
        <mxCell id="xQQp603TCt627xMXDRjn-43" value="Complete Eco Friendly Actions" style="rounded=1;whiteSpace=wrap;html=1;" vertex="1" parent="xQQp603TCt627xMXDRjn-2">
          <mxGeometry x="65" y="330" width="120" height="30" as="geometry" />
        </mxCell>
        <mxCell id="xQQp603TCt627xMXDRjn-57" style="edgeStyle=orthogonalEdgeStyle;rounded=0;orthogonalLoop=1;jettySize=auto;html=1;exitX=0.5;exitY=1;exitDx=0;exitDy=0;entryX=0.5;entryY=0;entryDx=0;entryDy=0;" edge="1" parent="xQQp603TCt627xMXDRjn-2" source="xQQp603TCt627xMXDRjn-55" target="xQQp603TCt627xMXDRjn-43">
          <mxGeometry relative="1" as="geometry" />
        </mxCell>
        <mxCell id="xQQp603TCt627xMXDRjn-55" value="Initiate Eco Friendly Actions" style="rounded=1;whiteSpace=wrap;html=1;" vertex="1" parent="xQQp603TCt627xMXDRjn-2">
          <mxGeometry x="65" y="250" width="120" height="30" as="geometry" />
        </mxCell>
        <mxCell id="xQQp603TCt627xMXDRjn-59" style="edgeStyle=orthogonalEdgeStyle;rounded=0;orthogonalLoop=1;jettySize=auto;html=1;exitX=0;exitY=0.5;exitDx=0;exitDy=0;entryX=0.375;entryY=0.067;entryDx=0;entryDy=0;entryPerimeter=0;" edge="1" parent="xQQp603TCt627xMXDRjn-2" source="xQQp603TCt627xMXDRjn-49" target="xQQp603TCt627xMXDRjn-48">
          <mxGeometry relative="1" as="geometry" />
        </mxCell>
        <mxCell id="xQQp603TCt627xMXDRjn-62" value="No" style="edgeLabel;html=1;align=center;verticalAlign=middle;resizable=0;points=[];" vertex="1" connectable="0" parent="xQQp603TCt627xMXDRjn-59">
          <mxGeometry x="-0.6863" y="-1" relative="1" as="geometry">
            <mxPoint as="offset" />
          </mxGeometry>
        </mxCell>
        <mxCell id="xQQp603TCt627xMXDRjn-49" value="EcoPoints Received?" style="rhombus;whiteSpace=wrap;html=1;" vertex="1" parent="xQQp603TCt627xMXDRjn-2">
          <mxGeometry x="85" y="390" width="80" height="80" as="geometry" />
        </mxCell>
        <mxCell id="xQQp603TCt627xMXDRjn-61" style="edgeStyle=orthogonalEdgeStyle;rounded=0;orthogonalLoop=1;jettySize=auto;html=1;exitX=0.25;exitY=0;exitDx=0;exitDy=0;entryX=0;entryY=0.25;entryDx=0;entryDy=0;" edge="1" parent="xQQp603TCt627xMXDRjn-2" source="xQQp603TCt627xMXDRjn-48" target="xQQp603TCt627xMXDRjn-7">
          <mxGeometry relative="1" as="geometry" />
        </mxCell>
        <mxCell id="xQQp603TCt627xMXDRjn-48" value="Continue Using App" style="rounded=1;whiteSpace=wrap;html=1;" vertex="1" parent="xQQp603TCt627xMXDRjn-2">
          <mxGeometry x="10" y="500" width="120" height="30" as="geometry" />
        </mxCell>
        <mxCell id="xQQp603TCt627xMXDRjn-94" style="edgeStyle=orthogonalEdgeStyle;rounded=0;orthogonalLoop=1;jettySize=auto;html=1;exitX=0.5;exitY=1;exitDx=0;exitDy=0;" edge="1" parent="xQQp603TCt627xMXDRjn-2" source="xQQp603TCt627xMXDRjn-74">
          <mxGeometry relative="1" as="geometry">
            <mxPoint x="420" y="660" as="targetPoint" />
          </mxGeometry>
        </mxCell>
        <mxCell id="xQQp603TCt627xMXDRjn-74" value="Receive Reward" style="rounded=1;whiteSpace=wrap;html=1;" vertex="1" parent="xQQp603TCt627xMXDRjn-2">
          <mxGeometry x="75" y="580" width="120" height="30" as="geometry" />
        </mxCell>
        <mxCell id="xQQp603TCt627xMXDRjn-3" value="EcoPoints App" style="swimlane;startSize=20;html=1;" vertex="1" parent="xQQp603TCt627xMXDRjn-1">
          <mxGeometry x="270" y="20" width="300" height="870" as="geometry" />
        </mxCell>
        <mxCell id="xQQp603TCt627xMXDRjn-69" style="edgeStyle=orthogonalEdgeStyle;rounded=0;orthogonalLoop=1;jettySize=auto;html=1;exitX=0.5;exitY=1;exitDx=0;exitDy=0;entryX=0.5;entryY=0;entryDx=0;entryDy=0;" edge="1" parent="xQQp603TCt627xMXDRjn-3" source="xQQp603TCt627xMXDRjn-51" target="xQQp603TCt627xMXDRjn-66">
          <mxGeometry relative="1" as="geometry" />
        </mxCell>
        <mxCell id="xQQp603TCt627xMXDRjn-51" value="Submit Request for Reward" style="rounded=1;whiteSpace=wrap;html=1;" vertex="1" parent="xQQp603TCt627xMXDRjn-3">
          <mxGeometry x="90" y="370" width="120" height="30" as="geometry" />
        </mxCell>
        <mxCell id="xQQp603TCt627xMXDRjn-66" value="Generate Redemption Code" style="rounded=1;whiteSpace=wrap;html=1;" vertex="1" parent="xQQp603TCt627xMXDRjn-3">
          <mxGeometry x="90" y="430" width="120" height="30" as="geometry" />
        </mxCell>
        <mxCell id="xQQp603TCt627xMXDRjn-77" value="Update Rewards Catalog" style="rounded=1;whiteSpace=wrap;html=1;" vertex="1" parent="xQQp603TCt627xMXDRjn-3">
          <mxGeometry x="90" y="504" width="120" height="30" as="geometry" />
        </mxCell>
        <mxCell id="xQQp603TCt627xMXDRjn-97" style="edgeStyle=orthogonalEdgeStyle;rounded=0;orthogonalLoop=1;jettySize=auto;html=1;exitX=0.5;exitY=1;exitDx=0;exitDy=0;entryX=0.5;entryY=0;entryDx=0;entryDy=0;" edge="1" parent="xQQp603TCt627xMXDRjn-3" source="xQQp603TCt627xMXDRjn-95" target="xQQp603TCt627xMXDRjn-96">
          <mxGeometry relative="1" as="geometry" />
        </mxCell>
        <mxCell id="xQQp603TCt627xMXDRjn-95" value="Close Order" style="rounded=1;whiteSpace=wrap;html=1;" vertex="1" parent="xQQp603TCt627xMXDRjn-3">
          <mxGeometry x="90" y="660" width="120" height="30" as="geometry" />
        </mxCell>
        <mxCell id="xQQp603TCt627xMXDRjn-96" value="" style="ellipse;html=1;shape=endState;fillColor=#000000;strokeColor=#ff0000;" vertex="1" parent="xQQp603TCt627xMXDRjn-3">
          <mxGeometry x="135" y="740" width="30" height="30" as="geometry" />
        </mxCell>
        <mxCell id="xQQp603TCt627xMXDRjn-63" style="edgeStyle=orthogonalEdgeStyle;rounded=0;orthogonalLoop=1;jettySize=auto;html=1;exitX=1;exitY=0;exitDx=0;exitDy=0;entryX=0;entryY=0.5;entryDx=0;entryDy=0;" edge="1" parent="xQQp603TCt627xMXDRjn-1" source="xQQp603TCt627xMXDRjn-49" target="xQQp603TCt627xMXDRjn-51">
          <mxGeometry relative="1" as="geometry" />
        </mxCell>
        <mxCell id="xQQp603TCt627xMXDRjn-93" value="Yes" style="edgeLabel;html=1;align=center;verticalAlign=middle;resizable=0;points=[];" vertex="1" connectable="0" parent="xQQp603TCt627xMXDRjn-63">
          <mxGeometry x="-0.425" relative="1" as="geometry">
            <mxPoint as="offset" />
          </mxGeometry>
        </mxCell>
        <mxCell id="xQQp603TCt627xMXDRjn-4" value="Business Partners" style="swimlane;startSize=20;html=1;" vertex="1" parent="xQQp603TCt627xMXDRjn-1">
          <mxGeometry x="570" y="20" width="310" height="870" as="geometry" />
        </mxCell>
        <mxCell id="xQQp603TCt627xMXDRjn-64" value="Deliver Reward" style="rounded=1;whiteSpace=wrap;html=1;" vertex="1" parent="xQQp603TCt627xMXDRjn-4">
          <mxGeometry x="95" y="580" width="120" height="30" as="geometry" />
        </mxCell>
        <mxCell id="xQQp603TCt627xMXDRjn-67" value="Validate Redemption Code" style="rounded=1;whiteSpace=wrap;html=1;" vertex="1" parent="xQQp603TCt627xMXDRjn-4">
          <mxGeometry x="95" y="430" width="120" height="30" as="geometry" />
        </mxCell>
        <mxCell id="xQQp603TCt627xMXDRjn-81" style="edgeStyle=orthogonalEdgeStyle;rounded=0;orthogonalLoop=1;jettySize=auto;html=1;exitX=0.5;exitY=1;exitDx=0;exitDy=0;entryX=0.5;entryY=0;entryDx=0;entryDy=0;" edge="1" parent="xQQp603TCt627xMXDRjn-4" source="xQQp603TCt627xMXDRjn-65" target="xQQp603TCt627xMXDRjn-67">
          <mxGeometry relative="1" as="geometry" />
        </mxCell>
        <mxCell id="xQQp603TCt627xMXDRjn-65" value="Offer Sustainable Products" style="rounded=1;whiteSpace=wrap;html=1;" vertex="1" parent="xQQp603TCt627xMXDRjn-4">
          <mxGeometry x="95" y="350" width="120" height="30" as="geometry" />
        </mxCell>
        <mxCell id="xQQp603TCt627xMXDRjn-80" style="edgeStyle=orthogonalEdgeStyle;rounded=0;orthogonalLoop=1;jettySize=auto;html=1;exitX=1;exitY=0.25;exitDx=0;exitDy=0;entryX=0;entryY=0.25;entryDx=0;entryDy=0;" edge="1" parent="xQQp603TCt627xMXDRjn-1" source="xQQp603TCt627xMXDRjn-66" target="xQQp603TCt627xMXDRjn-65">
          <mxGeometry relative="1" as="geometry" />
        </mxCell>
        <mxCell id="xQQp603TCt627xMXDRjn-82" style="edgeStyle=orthogonalEdgeStyle;rounded=0;orthogonalLoop=1;jettySize=auto;html=1;exitX=0.5;exitY=1;exitDx=0;exitDy=0;entryX=0.5;entryY=0;entryDx=0;entryDy=0;" edge="1" parent="xQQp603TCt627xMXDRjn-1" source="xQQp603TCt627xMXDRjn-67" target="xQQp603TCt627xMXDRjn-77">
          <mxGeometry relative="1" as="geometry" />
        </mxCell>
        <mxCell id="xQQp603TCt627xMXDRjn-83" style="edgeStyle=orthogonalEdgeStyle;rounded=0;orthogonalLoop=1;jettySize=auto;html=1;exitX=0.5;exitY=1;exitDx=0;exitDy=0;entryX=0.5;entryY=0;entryDx=0;entryDy=0;" edge="1" parent="xQQp603TCt627xMXDRjn-1" source="xQQp603TCt627xMXDRjn-77" target="xQQp603TCt627xMXDRjn-64">
          <mxGeometry relative="1" as="geometry" />
        </mxCell>
        <mxCell id="xQQp603TCt627xMXDRjn-91" style="edgeStyle=orthogonalEdgeStyle;rounded=0;orthogonalLoop=1;jettySize=auto;html=1;exitX=0;exitY=0.5;exitDx=0;exitDy=0;entryX=1;entryY=0.5;entryDx=0;entryDy=0;" edge="1" parent="xQQp603TCt627xMXDRjn-1" source="xQQp603TCt627xMXDRjn-64" target="xQQp603TCt627xMXDRjn-74">
          <mxGeometry relative="1" as="geometry" />
        </mxCell>
      </root>
    </mxGraphModel>
  </diagram>
</mxfile>
